<svg xmlns="http://www.w3.org/2000/svg" xmlns:xlink="http://www.w3.org/1999/xlink" viewBox="0,0,255.99788,255.99788" width="128px" height="128px" fill-rule="nonzero"><g fill="#dddddd" fill-rule="nonzero" stroke="#dddddd" stroke-width="6" stroke-linecap="butt" stroke-linejoin="round" stroke-miterlimit="10" stroke-dasharray="" stroke-dashoffset="0" font-family="none" font-weight="none" font-size="none" text-anchor="none" style="mix-blend-mode: normal"><path transform="scale(4,4)" d="M60,11v42c0,3.86 -3.141,7 -7,7h-42c-3.859,0 -7,-3.14 -7,-7v-42c0,-3.86 3.141,-7 7,-7h42c3.859,0 7,3.14 7,7z" id="strokeMainSVG"></path></g><g fill="none" fill-rule="nonzero" stroke="none" stroke-width="1" stroke-linecap="butt" stroke-linejoin="miter" stroke-miterlimit="10" stroke-dasharray="" stroke-dashoffset="0" font-family="none" font-weight="none" font-size="none" text-anchor="none" style="mix-blend-mode: normal"><g transform="scale(4,4)"><path d="M59,11v42c0,3.31 -2.69,6 -6,6h-42c-3.31,0 -6,-2.69 -6,-6v-42c0,-3.31 2.69,-6 6,-6h42c3.31,0 6,2.69 6,6z" fill="#ed7899"></path><path d="M59,11v0c0,1.657 -1.343,3 -3,3h-48c-1.657,0 -3,-1.343 -3,-3v0c0,-3.314 2.686,-6 6,-6h42c3.314,0 6,2.686 6,6z" fill="#f98cb3"></path><path d="M20,25c-1,-1 -4,-3 -6,3c-2,6 -6,14 2,12c8,-2 4,0 7,0c3,0 6,-2 6,-2c0,0 2,3 5,2c3,-1 5,-2 5,-2l1,-1l2,3c0,0 5,1 7,-1c2,-2 7,-15 0,-15c-7,0 -6,3 -6,3l-3,-3h-4l-3,2l-2,-1l-3,-1l-3,1l-2,1l-1,1h-1z" fill="#f9dd8f"></path><path d="M53,4h-42c-3.859,0 -7,3.14 -7,7v42c0,3.86 3.141,7 7,7h42c3.859,0 7,-3.14 7,-7v-42c0,-3.86 -3.141,-7 -7,-7zM58,53c0,2.757 -2.243,5 -5,5h-42c-2.757,0 -5,-2.243 -5,-5v-42c0,-2.757 2.243,-5 5,-5h42c2.757,0 5,2.243 5,5z" fill="#511870"></path><path d="M15,16c0.553,0 1,-0.448 1,-1v-2c0,-0.552 -0.447,-1 -1,-1c-0.553,0 -1,0.448 -1,1v2c0,0.552 0.447,1 1,1zM11,15v-2c0,-0.552 -0.447,-1 -1,-1c-0.553,0 -1,0.448 -1,1v2c0,0.552 0.447,1 1,1c0.553,0 1,-0.448 1,-1zM30,16c0.553,0 1,-0.448 1,-1v-2c0,-0.552 -0.447,-1 -1,-1c-0.553,0 -1,0.448 -1,1v2c0,0.552 0.447,1 1,1zM35,16c0.553,0 1,-0.448 1,-1v-2c0,-0.552 -0.447,-1 -1,-1c-0.553,0 -1,0.448 -1,1v2c0,0.552 0.447,1 1,1zM40,16c0.553,0 1,-0.448 1,-1v-2c0,-0.552 -0.447,-1 -1,-1c-0.553,0 -1,0.448 -1,1v2c0,0.552 0.447,1 1,1zM45,16c0.553,0 1,-0.448 1,-1v-2c0,-0.552 -0.447,-1 -1,-1c-0.553,0 -1,0.448 -1,1v2c0,0.552 0.447,1 1,1zM50,16c0.553,0 1,-0.448 1,-1v-2c0,-0.552 -0.447,-1 -1,-1c-0.553,0 -1,0.448 -1,1v2c0,0.552 0.447,1 1,1zM55,12c-0.553,0 -1,0.448 -1,1v2c0,0.552 0.447,1 1,1c0.553,0 1,-0.448 1,-1v-2c0,-0.552 -0.447,-1 -1,-1zM20,16c0.553,0 1,-0.448 1,-1v-2c0,-0.552 -0.447,-1 -1,-1c-0.553,0 -1,0.448 -1,1v2c0,0.552 0.447,1 1,1zM25,16c0.553,0 1,-0.448 1,-1v-2c0,-0.552 -0.447,-1 -1,-1c-0.553,0 -1,0.448 -1,1v2c0,0.552 0.447,1 1,1zM48.13,27.831c-0.057,0 -0.111,-0.003 -0.165,-0.003c-0.027,0 -0.055,0.001 -0.082,0.003c-0.249,0.021 -0.502,0.085 -0.671,0.424c-0.678,0.904 -2.586,6.118 -2.473,7.136c0,0.339 0.219,0.671 0.671,0.671c0.452,0 0.798,-0.326 1.024,-0.777c0.452,-0.906 2.148,-5.652 2.261,-6.783c0.001,-0.226 0.001,-0.671 -0.565,-0.671z" fill="#511870"></path><path d="M48.622,22.758c-0.139,-0.004 -0.282,-0.008 -0.421,-0.008c-0.14,0 -0.276,0.003 -0.405,0.011c-2.283,0.14 -3.809,1.166 -4.878,2.461c-0.158,-0.303 -0.355,-0.587 -0.589,-0.849c-1.008,-1.126 -2.597,-1.721 -4.595,-1.721c-2.524,0 -4.23,0.871 -5.488,2.176c-0.105,-0.232 -0.241,-0.454 -0.407,-0.661c-0.896,-1.117 -2.404,-1.515 -3.517,-1.515c-2.87,0 -4.952,0.592 -6.708,3.429c0.001,-0.029 0.001,-0.058 0.001,-0.087c0,-1.556 -1.16,-3.13 -3.378,-3.13c-2.289,0 -3.457,1.355 -4.137,2.374l-0.022,0.033l-0.021,0.034c-1.232,2.016 -4.26,8.504 -4.144,11.93c0.021,2.404 1.824,4.084 4.408,4.112c0.163,0.009 0.327,0.014 0.492,0.014c1.971,0 3.549,-0.654 4.539,-1.805c0.949,1.186 2.481,1.898 4.341,1.898c2.415,0 4.302,-0.86 5.293,-2.287c0.964,1.316 2.559,2.075 4.579,2.075c2.347,0 4.457,-1.057 5.98,-2.85c0.767,1.865 2.575,2.956 5.088,2.956c1.123,0 4.542,0 6.755,-4.257c1.1,-2.065 1.969,-4.479 2.315,-6.439c0.271,-1.349 0.831,-4.15 -0.79,-6.128c-0.955,-1.165 -2.398,-1.759 -4.291,-1.766zM15.764,35.391c0.371,-0.056 0.698,-0.081 0.982,-0.081c1.448,0 1.832,0.656 1.738,1.318c-0.208,2.084 -1.978,2.734 -3.671,2.734c-0.143,0 -0.286,-0.005 -0.427,-0.013c-1.357,0 -2.473,-0.685 -2.473,-2.155c-0.113,-2.712 2.607,-8.81 3.851,-10.845c0.678,-1.017 1.342,-1.484 2.473,-1.484c1.017,0 1.378,0.565 1.378,1.13c-0.001,1.808 -2.947,7.247 -3.851,9.396zM28.003,28.397c-0.502,0.1 -1.178,0.106 -1.639,0.106c-0.058,0 -0.112,0 -0.162,0c0,0 -0.36,0.565 -0.812,1.696c0.364,-0.036 0.696,-0.055 0.994,-0.055c1.556,0 2.211,0.506 1.832,1.645c-0.326,1.303 -1.237,1.711 -2.439,1.711c-0.468,0 -0.979,-0.062 -1.518,-0.157c-0.113,0.451 -0.339,1.252 -0.565,2.155c0.791,-0.113 1.357,-0.212 2.261,-0.212c1.017,0 1.802,0.438 1.802,1.342c0,2.261 -2.48,2.826 -4.062,2.826c-1.809,0 -3.391,-1.003 -3.391,-3.038c0,-2.487 1.265,-5.998 2.508,-8.372c1.47,-2.939 2.911,-3.391 5.511,-3.391c1.017,0 2.381,0.572 2.155,1.59c-0.002,1.581 -1.232,2.041 -2.475,2.154zM39.111,30.092c-0.34,0 -1.935,0 -1.484,-1.696c0.114,-0.452 0.226,-0.918 -0.565,-0.918c-0.565,0 -1.009,0.325 -1.236,0.777c-0.678,0.904 -2.035,4.748 -2.261,6.217c-0.113,1.13 0.325,1.378 0.777,1.378c0.791,0 1.71,-0.905 2.049,-2.261c0,0 -1.583,-0.021 -1.13,-1.378c0.339,-1.357 1.229,-1.583 2.473,-1.696c0.07,-0.003 0.138,-0.005 0.203,-0.005c2.273,0 2.065,1.842 1.845,2.831c-0.678,3.277 -2.939,5.899 -6.217,5.899c-2.261,0 -3.603,-1.236 -3.603,-3.497c0,-1.581 0.883,-4.183 1.448,-5.652c1.357,-3.165 2.706,-5.44 6.323,-5.44c2.147,0 3.864,0.897 3.639,2.932c-0.226,1.471 -1.017,2.396 -2.261,2.509zM51.734,30.304c-0.339,1.922 -1.216,4.169 -2.12,5.864c-1.47,2.826 -3.4,3.179 -4.981,3.179c-1.696,0 -3.497,-0.579 -3.497,-3.179c0,-1.81 0.77,-4.274 1.448,-5.97c1.06,-2.861 2.213,-5.249 5.334,-5.44c0.09,-0.005 0.185,-0.008 0.283,-0.008c0.128,0 0.26,0.004 0.388,0.008c4.295,0 3.484,3.851 3.145,5.546z" fill="#511870"></path></g></g></svg>